<?xml version="1.0" encoding="UTF-8" standalone="no"?>
<!DOCTYPE svg PUBLIC "-//W3C//DTD SVG 1.1//EN"
 "http://www.w3.org/Graphics/SVG/1.1/DTD/svg11.dtd">
<!-- Generated by graphviz version 14.1.5 (20260411.2331)
 -->
<!-- Title: ARCPRustSdk Pages: 1 -->
<svg width="1521pt" height="677pt"
 viewBox="0.00 0.00 1521.00 677.00" xmlns="http://www.w3.org/2000/svg" xmlns:xlink="http://www.w3.org/1999/xlink">
<g id="graph0" class="graph" transform="scale(1 1) rotate(0) translate(30.24 655.04)">
<title>ARCPRustSdk</title>
<g id="clust1" class="cluster">
<title>cluster_envelope</title>
<path fill="#1b1813" stroke="#c9c2b4" stroke-width="1.1" d="M20,-8C20,-8 1441,-8 1441,-8 1447,-8 1453,-14 1453,-20 1453,-20 1453,-613.44 1453,-613.44 1453,-619.44 1447,-625.44 1441,-625.44 1441,-625.44 20,-625.44 20,-625.44 14,-625.44 8,-619.44 8,-613.44 8,-613.44 8,-20 8,-20 8,-14 14,-8 20,-8"/>
<text xml:space="preserve" text-anchor="start" x="22" y="-606.19" font-family="IBM Plex Mono" font-size="10.00" fill="#f0612f">ARCP · RUST SDK · CARGO WORKSPACE</text>
</g>
<g id="clust2" class="cluster">
<title>cluster_core</title>
<path fill="#161310" stroke="#7a7264" stroke-width="1.3" d="M588,-96C588,-96 1417,-96 1417,-96 1423,-96 1429,-102 1429,-108 1429,-108 1429,-334.88 1429,-334.88 1429,-340.88 1423,-346.88 1417,-346.88 1417,-346.88 588,-346.88 588,-346.88 582,-346.88 576,-340.88 576,-334.88 576,-334.88 576,-108 576,-108 576,-102 582,-96 588,-96"/>
<text xml:space="preserve" text-anchor="start" x="589" y="-328.38" font-family="IBM Plex Mono" font-size="10.00" fill="#ece6da">arcp&#45;core</text>
<text xml:space="preserve" text-anchor="start" x="629.5" y="-328.38" font-family="IBM Plex Mono" font-size="8.00" fill="#8c8576"> &#160;· protocol foundation · ARCP v1.1 · dependency&#45;light, storage&#45;free</text>
</g>
<g id="clust3" class="cluster">
<title>cluster_transport</title>
<path fill="none" stroke="#a8794d" stroke-dasharray="5,2" d="M780,-110C780,-110 1076,-110 1076,-110 1082,-110 1088,-116 1088,-122 1088,-122 1088,-196 1088,-196 1088,-202 1082,-208 1076,-208 1076,-208 780,-208 780,-208 774,-208 768,-202 768,-196 768,-196 768,-122 768,-122 768,-116 774,-110 780,-110"/>
<text xml:space="preserve" text-anchor="start" x="780" y="-193.25" font-family="IBM Plex Mono" font-size="8.00" fill="#a8794d">transport · Transport trait</text>
</g>
<g id="clust6" class="cluster">
<title>cluster_stubs</title>
<path fill="none" stroke="#5f5949" stroke-dasharray="5,2" d="M44,-238.38C44,-238.38 404,-238.38 404,-238.38 410,-238.38 416,-244.38 416,-250.38 416,-250.38 416,-323.88 416,-323.88 416,-329.88 410,-335.88 404,-335.88 404,-335.88 44,-335.88 44,-335.88 38,-335.88 32,-329.88 32,-323.88 32,-323.88 32,-250.38 32,-250.38 32,-244.38 38,-238.38 44,-238.38"/>
<text xml:space="preserve" text-anchor="start" x="54" y="-319.38" font-family="IBM Plex Mono" font-size="9.00" fill="#8c8576"> reservation stubs · 0.1.0&#45;alpha · re&#45;export arcp&#45;core only (integrations deferred)</text>
</g>
<!-- Umbrella -->
<g id="node1" class="node">
<title>Umbrella</title>
<path fill="#1a1813" stroke="#f0612f" stroke-width="1.4" d="M941.15,-548.94C941.15,-548.94 670.85,-548.94 670.85,-548.94 664.85,-548.94 658.85,-542.94 658.85,-536.94 658.85,-536.94 658.85,-509.66 658.85,-509.66 658.85,-503.66 664.85,-497.66 670.85,-497.66 670.85,-497.66 941.15,-497.66 941.15,-497.66 947.15,-497.66 953.15,-503.66 953.15,-509.66 953.15,-509.66 953.15,-536.94 953.15,-536.94 953.15,-542.94 947.15,-548.94 941.15,-548.94"/>
<text xml:space="preserve" text-anchor="start" x="794.38" y="-529.9" font-family="IBM Plex Mono" font-size="12.00" fill="#f0612f">arcp</text>
<text xml:space="preserve" text-anchor="start" x="805.25" y="-523.6" font-family="IBM Plex Mono" font-size="6.00" fill="#c9c2b4"> </text>
<text xml:space="preserve" text-anchor="start" x="724.25" y="-515.7" font-family="IBM Plex Mono" font-size="8.00" fill="#8c8576">umbrella facade · pub&#45;use re&#45;exports, no logic</text>
<text xml:space="preserve" text-anchor="start" x="673.25" y="-507.7" font-family="IBM Plex Mono" font-size="8.00" fill="#5f5949">paths: arcp::{messages, envelope, transport, auth, client*, runtime*, store*}</text>
</g>
<!-- Client -->
<g id="node2" class="node">
<title>Client</title>
<path fill="#1a1813" stroke="#7a7264" stroke-width="1.2" d="M571.27,-441.91C571.27,-441.91 364.73,-441.91 364.73,-441.91 358.73,-441.91 352.73,-435.91 352.73,-429.91 352.73,-429.91 352.73,-403.63 352.73,-403.63 352.73,-397.63 358.73,-391.63 364.73,-391.63 364.73,-391.63 571.27,-391.63 571.27,-391.63 577.27,-391.63 583.27,-397.63 583.27,-403.63 583.27,-403.63 583.27,-429.91 583.27,-429.91 583.27,-435.91 577.27,-441.91 571.27,-441.91"/>
<text xml:space="preserve" text-anchor="start" x="443.25" y="-423.82" font-family="IBM Plex Mono" font-size="11.00" fill="#ece6da">arcp&#45;client</text>
<text xml:space="preserve" text-anchor="start" x="467.25" y="-417.57" font-family="IBM Plex Mono" font-size="6.00" fill="#c9c2b4"> </text>
<text xml:space="preserve" text-anchor="start" x="367.12" y="-409.67" font-family="IBM Plex Mono" font-size="8.00" fill="#8c8576">ARCPClient · Session&lt;Unauthenticated→Authenticated&gt;</text>
<text xml:space="preserve" text-anchor="start" x="411" y="-401.67" font-family="IBM Plex Mono" font-size="8.00" fill="#8c8576">JobHandle · SubscriptionHandle</text>
</g>
<!-- Umbrella&#45;&gt;Client -->
<g id="edge7" class="edge">
<title>Umbrella&#45;&gt;Client</title>
<path fill="none" stroke="#7a7264" d="M724.18,-497C673.16,-481.22 607.53,-460.92 555.48,-444.82"/>
<polygon fill="#7a7264" stroke="#7a7264" points="549.06,-442.84 556.68,-441.9 551.24,-443.51 555.75,-444.91 555.75,-444.91 555.75,-444.91 551.24,-443.51 554.82,-447.92 549.06,-442.84"/>
<text xml:space="preserve" text-anchor="middle" x="684.61" y="-470.11" font-family="IBM Plex Mono" font-size="9.00" fill="#a39c8d">feature: client</text>
</g>
<!-- Runtime -->
<g id="node3" class="node">
<title>Runtime</title>
<path fill="#1a1813" stroke="#a8794d" stroke-width="1.4" d="M903.65,-449.91C903.65,-449.91 708.35,-449.91 708.35,-449.91 702.35,-449.91 696.35,-443.91 696.35,-437.91 696.35,-437.91 696.35,-395.63 696.35,-395.63 696.35,-389.63 702.35,-383.63 708.35,-383.63 708.35,-383.63 903.65,-383.63 903.65,-383.63 909.65,-383.63 915.65,-389.63 915.65,-395.63 915.65,-395.63 915.65,-437.91 915.65,-437.91 915.65,-443.91 909.65,-449.91 903.65,-449.91"/>
<text xml:space="preserve" text-anchor="start" x="775.62" y="-431.82" font-family="IBM Plex Mono" font-size="11.00" fill="#c79968">arcp&#45;runtime</text>
<text xml:space="preserve" text-anchor="start" x="805.25" y="-425.57" font-family="IBM Plex Mono" font-size="6.00" fill="#c9c2b4"> </text>
<text xml:space="preserve" text-anchor="start" x="749" y="-417.67" font-family="IBM Plex Mono" font-size="8.00" fill="#8c8576">ARCPRuntime / RuntimeBuilder</text>
<text xml:space="preserve" text-anchor="start" x="718.62" y="-409.67" font-family="IBM Plex Mono" font-size="8.00" fill="#8c8576">ToolRegistry · JobRegistry · SubscriptionManager</text>
<text xml:space="preserve" text-anchor="start" x="710.75" y="-401.67" font-family="IBM Plex Mono" font-size="8.00" fill="#8c8576">CredentialLedger · ArtifactStore · arcp CLI (serve/tail)</text>
<text xml:space="preserve" text-anchor="start" x="726.12" y="-393.67" font-family="IBM Plex Mono" font-size="8.00" fill="#8c8576">auth validators: Bearer · SignedJwt† · None†</text>
</g>
<!-- Umbrella&#45;&gt;Runtime -->
<g id="edge8" class="edge">
<title>Umbrella&#45;&gt;Runtime</title>
<path fill="none" stroke="#7a7264" d="M806,-497C806,-485.39 806,-471.34 806,-458.31"/>
<polygon fill="#7a7264" stroke="#7a7264" points="806,-451.58 809.15,-458.58 806,-453.86 806,-458.58 806,-458.58 806,-458.58 806,-453.86 802.85,-458.58 806,-451.58"/>
<text xml:space="preserve" text-anchor="middle" x="837.88" y="-470.11" font-family="IBM Plex Mono" font-size="9.00" fill="#a39c8d">feature: runtime</text>
</g>
<!-- Ids -->
<g id="node7" class="node">
<title>Ids</title>
<path fill="#1a1813" stroke="#2b2820" d="M1013.28,-282.38C1013.28,-282.38 914.73,-282.38 914.73,-282.38 908.73,-282.38 902.73,-276.38 902.73,-270.38 902.73,-270.38 902.73,-258.38 902.73,-258.38 902.73,-252.38 908.73,-246.38 914.73,-246.38 914.73,-246.38 1013.28,-246.38 1013.28,-246.38 1019.28,-246.38 1025.28,-252.38 1025.28,-258.38 1025.28,-258.38 1025.28,-270.38 1025.28,-270.38 1025.28,-276.38 1019.28,-282.38 1013.28,-282.38"/>
<text xml:space="preserve" text-anchor="start" x="958" y="-264.83" font-family="IBM Plex Mono" font-size="9.00" fill="#c9c2b4">ids</text>
<text xml:space="preserve" text-anchor="start" x="917.12" y="-257.73" font-family="IBM Plex Mono" font-size="7.00" fill="#5f5949">SessionId · JobId · TraceId …</text>
</g>
<!-- Umbrella&#45;&gt;Ids -->
<g id="edge11" class="edge">
<title>Umbrella&#45;&gt;Ids</title>
<path fill="none" stroke="#3c372f" stroke-dasharray="5,2" d="M866.36,-497.07C888.23,-485.43 911.58,-469.73 928,-449.91 949.85,-423.54 959.84,-387.78 964.02,-354.76"/>
<polygon fill="#3c372f" stroke="#3c372f" points="964.78,-348.09 967.12,-355.4 964.52,-350.35 963.99,-355.04 963.99,-355.04 963.99,-355.04 964.52,-350.35 960.86,-354.69 964.78,-348.09"/>
<text xml:space="preserve" text-anchor="middle" x="972.89" y="-413.09" font-family="IBM Plex Mono" font-size="9.00" fill="#5f5949">always</text>
</g>
<!-- Client&#45;&gt;Runtime -->
<g id="edge16" class="edge">
<title>Client&#45;&gt;Runtime</title>
<path fill="none" stroke="#a8794d" stroke-dasharray="5,2" d="M591.97,-416.77C623.3,-416.77 656.86,-416.77 687.89,-416.77"/>
<polygon fill="#a8794d" stroke="#a8794d" points="592.36,-414.32 585.36,-416.77 592.36,-419.22 592.36,-414.32"/>
<polygon fill="#a8794d" stroke="#a8794d" points="694.5,-416.77 687.5,-419.92 692.22,-416.77 687.5,-416.77 687.5,-416.77 687.5,-416.77 692.22,-416.77 687.5,-413.62 694.5,-416.77"/>
<text xml:space="preserve" text-anchor="middle" x="639.81" y="-430.72" font-family="IBM Plex Mono" font-size="9.00" fill="#a8794d">ARCP v1.1 envelopes</text>
<text xml:space="preserve" text-anchor="middle" x="639.81" y="-420.97" font-family="IBM Plex Mono" font-size="9.00" fill="#a8794d">over a core Transport</text>
</g>
<!-- Messages -->
<g id="node6" class="node">
<title>Messages</title>
<path fill="#1a1813" stroke="#2b2820" d="M866.27,-282.38C866.27,-282.38 761.73,-282.38 761.73,-282.38 755.73,-282.38 749.73,-276.38 749.73,-270.38 749.73,-270.38 749.73,-258.38 749.73,-258.38 749.73,-252.38 755.73,-246.38 761.73,-246.38 761.73,-246.38 866.27,-246.38 866.27,-246.38 872.27,-246.38 878.27,-252.38 878.27,-258.38 878.27,-258.38 878.27,-270.38 878.27,-270.38 878.27,-276.38 872.27,-282.38 866.27,-282.38"/>
<text xml:space="preserve" text-anchor="start" x="793" y="-264.83" font-family="IBM Plex Mono" font-size="9.00" fill="#c9c2b4">messages</text>
<text xml:space="preserve" text-anchor="start" x="764.12" y="-257.73" font-family="IBM Plex Mono" font-size="7.00" fill="#5f5949">MessageType (62) · Capabilities</text>
</g>
<!-- Client&#45;&gt;Messages -->
<g id="edge9" class="edge">
<title>Client&#45;&gt;Messages</title>
<path fill="none" stroke="#7a7264" stroke-width="1.2" d="M501.8,-391.06C521.98,-377.75 548.73,-362.52 575,-354.88 607.37,-345.46 692.01,-359.84 730.18,-349.64"/>
<polygon fill="#7a7264" stroke="#7a7264" stroke-width="1.2" points="736.62,-347.37 731.07,-352.66 734.73,-348.14 730.05,-349.79 730.02,-349.69 729.99,-349.6 734.67,-347.95 728.97,-346.72 736.62,-347.37"/>
</g>
<!-- Tower -->
<g id="node14" class="node">
<title>Tower</title>
<path fill="#1a1813" stroke="#2b2820" d="M82,-282.38C82,-282.38 52,-282.38 52,-282.38 46,-282.38 40,-276.38 40,-270.38 40,-270.38 40,-258.38 40,-258.38 40,-252.38 46,-246.38 52,-246.38 52,-246.38 82,-246.38 82,-246.38 88,-246.38 94,-252.38 94,-258.38 94,-258.38 94,-270.38 94,-270.38 94,-276.38 88,-282.38 82,-282.38"/>
<text xml:space="preserve" text-anchor="start" x="45.25" y="-261.75" font-family="IBM Plex Mono" font-size="9.00" fill="#8c8576">arcp&#45;tower</text>
</g>
<!-- Client&#45;&gt;Tower -->
<!-- EventLog -->
<g id="node4" class="node">
<title>EventLog</title>
<path fill="#161310" stroke="#2b2820" d="M562.02,-287.6C562.02,-290.45 532.88,-292.76 497,-292.76 461.12,-292.76 431.98,-290.45 431.98,-287.6 431.98,-287.6 431.98,-241.16 431.98,-241.16 431.98,-238.31 461.12,-236 497,-236 532.88,-236 562.02,-238.31 562.02,-241.16 562.02,-241.16 562.02,-287.6 562.02,-287.6"/>
<path fill="none" stroke="#2b2820" d="M562.02,-287.6C562.02,-284.75 532.88,-282.44 497,-282.44 461.12,-282.44 431.98,-284.75 431.98,-287.6"/>
<text xml:space="preserve" text-anchor="start" x="476.38" y="-267.88" font-family="IBM Plex Mono" font-size="10.00" fill="#ece6da">EventLog</text>
<text xml:space="preserve" text-anchor="start" x="449.38" y="-260.73" font-family="IBM Plex Mono" font-size="7.00" fill="#5f5949">rusqlite · in&#45;memory by default</text>
<text xml:space="preserve" text-anchor="start" x="446.38" y="-253.73" font-family="IBM Plex Mono" font-size="7.00" fill="#5f5949">events table → resume / backfill</text>
</g>
<!-- Runtime&#45;&gt;EventLog -->
<g id="edge12" class="edge">
<title>Runtime&#45;&gt;EventLog</title>
<path fill="none" stroke="#3c372f" d="M717.53,-382.94C687.81,-372.82 654.26,-362.38 623,-354.88 599.84,-349.32 590.96,-358.2 570,-346.88 549.49,-335.81 531.87,-316.62 519.08,-299.65"/>
<polygon fill="#3c372f" stroke="#3c372f" points="514.97,-294.01 521.64,-297.81 516.31,-295.86 519.09,-299.67 519.09,-299.67 519.09,-299.67 516.31,-295.86 516.55,-301.52 514.97,-294.01"/>
</g>
<!-- Runtime&#45;&gt;Messages -->
<g id="edge10" class="edge">
<title>Runtime&#45;&gt;Messages</title>
<path fill="none" stroke="#7a7264" stroke-width="1.2" d="M807.74,-383.14C808.19,-374.67 808.69,-365.14 809.22,-355.25"/>
<polygon fill="#7a7264" stroke="#7a7264" stroke-width="1.2" points="809.59,-348.34 812.36,-355.5 809.58,-350.38 809.31,-355.33 809.22,-355.33 809.12,-355.32 809.38,-350.37 806.07,-355.16 809.59,-348.34"/>
</g>
<!-- AuthTrait -->
<g id="node10" class="node">
<title>AuthTrait</title>
<path fill="#1a1813" stroke="#2b2820" d="M1403.4,-282.38C1403.4,-282.38 1296.6,-282.38 1296.6,-282.38 1290.6,-282.38 1284.6,-276.38 1284.6,-270.38 1284.6,-270.38 1284.6,-258.38 1284.6,-258.38 1284.6,-252.38 1290.6,-246.38 1296.6,-246.38 1296.6,-246.38 1403.4,-246.38 1403.4,-246.38 1409.4,-246.38 1415.4,-252.38 1415.4,-258.38 1415.4,-258.38 1415.4,-270.38 1415.4,-270.38 1415.4,-276.38 1409.4,-282.38 1403.4,-282.38"/>
<text xml:space="preserve" text-anchor="start" x="1341" y="-264.83" font-family="IBM Plex Mono" font-size="9.00" fill="#c9c2b4">auth</text>
<text xml:space="preserve" text-anchor="start" x="1299" y="-257.73" font-family="IBM Plex Mono" font-size="7.00" fill="#5f5949">Authenticator trait · AuthRegistry</text>
</g>
<!-- Runtime&#45;&gt;AuthTrait -->
<g id="edge15" class="edge">
<title>Runtime&#45;&gt;AuthTrait</title>
<path fill="none" stroke="#5f5949" stroke-dasharray="5,2" d="M916.11,-387.1C922.14,-385.85 928.14,-384.68 934,-383.63 1083.18,-356.95 1137.26,-414.28 1273,-346.88 1298.93,-334 1320.72,-308.58 1334.43,-289.53"/>
<polygon fill="#5f5949" stroke="#5f5949" points="1338.41,-283.84 1336.98,-291.38 1337.1,-285.71 1334.4,-289.58 1334.4,-289.58 1334.4,-289.58 1337.1,-285.71 1331.82,-287.77 1338.41,-283.84"/>
<text xml:space="preserve" text-anchor="middle" x="1273.04" y="-356.08" font-family="IBM Plex Mono" font-size="9.00" fill="#5f5949">implements</text>
</g>
<!-- Envelope -->
<g id="node5" class="node">
<title>Envelope</title>
<path fill="#1a1813" stroke="#2b2820" d="M713.65,-282.38C713.65,-282.38 602.35,-282.38 602.35,-282.38 596.35,-282.38 590.35,-276.38 590.35,-270.38 590.35,-270.38 590.35,-258.38 590.35,-258.38 590.35,-252.38 596.35,-246.38 602.35,-246.38 602.35,-246.38 713.65,-246.38 713.65,-246.38 719.65,-246.38 725.65,-252.38 725.65,-258.38 725.65,-258.38 725.65,-270.38 725.65,-270.38 725.65,-276.38 719.65,-282.38 713.65,-282.38"/>
<text xml:space="preserve" text-anchor="start" x="638.88" y="-264.83" font-family="IBM Plex Mono" font-size="9.00" fill="#c9c2b4">envelope</text>
<text xml:space="preserve" text-anchor="start" x="604.75" y="-257.73" font-family="IBM Plex Mono" font-size="7.00" fill="#5f5949">Envelope · RawEnvelope · Priority</text>
</g>
<!-- Memory -->
<g id="node11" class="node">
<title>Memory</title>
<path fill="#1a1813" stroke="#2b2820" d="M838.15,-156C838.15,-156 789.85,-156 789.85,-156 783.85,-156 777.85,-150 777.85,-144 777.85,-144 777.85,-132 777.85,-132 777.85,-126 783.85,-120 789.85,-120 789.85,-120 838.15,-120 838.15,-120 844.15,-120 850.15,-126 850.15,-132 850.15,-132 850.15,-144 850.15,-144 850.15,-150 844.15,-156 838.15,-156"/>
<text xml:space="preserve" text-anchor="start" x="792.25" y="-135.38" font-family="IBM Plex Mono" font-size="9.00" fill="#c9c2b4">in&#45;memory</text>
</g>
<!-- Messages&#45;&gt;Memory -->
<!-- Errors -->
<g id="node8" class="node">
<title>Errors</title>
<path fill="#1a1813" stroke="#2b2820" d="M1138.78,-282.38C1138.78,-282.38 1061.22,-282.38 1061.22,-282.38 1055.22,-282.38 1049.22,-276.38 1049.22,-270.38 1049.22,-270.38 1049.22,-258.38 1049.22,-258.38 1049.22,-252.38 1055.22,-246.38 1061.22,-246.38 1061.22,-246.38 1138.78,-246.38 1138.78,-246.38 1144.78,-246.38 1150.78,-252.38 1150.78,-258.38 1150.78,-258.38 1150.78,-270.38 1150.78,-270.38 1150.78,-276.38 1144.78,-282.38 1138.78,-282.38"/>
<text xml:space="preserve" text-anchor="start" x="1090.25" y="-264.83" font-family="IBM Plex Mono" font-size="9.00" fill="#c9c2b4">error</text>
<text xml:space="preserve" text-anchor="start" x="1063.62" y="-257.73" font-family="IBM Plex Mono" font-size="7.00" fill="#5f5949">ARCPError · ErrorCode</text>
</g>
<!-- Ext -->
<g id="node9" class="node">
<title>Ext</title>
<path fill="#1a1813" stroke="#2b2820" d="M1248.9,-282.38C1248.9,-282.38 1187.1,-282.38 1187.1,-282.38 1181.1,-282.38 1175.1,-276.38 1175.1,-270.38 1175.1,-270.38 1175.1,-258.38 1175.1,-258.38 1175.1,-252.38 1181.1,-246.38 1187.1,-246.38 1187.1,-246.38 1248.9,-246.38 1248.9,-246.38 1254.9,-246.38 1260.9,-252.38 1260.9,-258.38 1260.9,-258.38 1260.9,-270.38 1260.9,-270.38 1260.9,-276.38 1254.9,-282.38 1248.9,-282.38"/>
<text xml:space="preserve" text-anchor="start" x="1195.88" y="-264.83" font-family="IBM Plex Mono" font-size="9.00" fill="#c9c2b4">extensions</text>
<text xml:space="preserve" text-anchor="start" x="1189.5" y="-257.73" font-family="IBM Plex Mono" font-size="7.00" fill="#5f5949">ExtensionRegistry</text>
</g>
<!-- Stdio -->
<g id="node12" class="node">
<title>Stdio</title>
<path fill="#1a1813" stroke="#2b2820" d="M940.15,-156C940.15,-156 909.85,-156 909.85,-156 903.85,-156 897.85,-150 897.85,-144 897.85,-144 897.85,-132 897.85,-132 897.85,-126 903.85,-120 909.85,-120 909.85,-120 940.15,-120 940.15,-120 946.15,-120 952.15,-126 952.15,-132 952.15,-132 952.15,-144 952.15,-144 952.15,-150 946.15,-156 940.15,-156"/>
<text xml:space="preserve" text-anchor="start" x="912.25" y="-135.38" font-family="IBM Plex Mono" font-size="9.00" fill="#c9c2b4">stdio *</text>
</g>
<!-- Memory&#45;&gt;Stdio -->
<!-- Legend -->
<g id="node18" class="node">
<title>Legend</title>
<text xml:space="preserve" text-anchor="start" x="586.75" y="-48.12" font-family="IBM Plex Mono" font-size="7.00" fill="#5f5949">* feature&#45;gated (transport&#45;ws / transport&#45;stdio) · in&#45;memory transport always compiled   •   † SDK extension (only bearer is ARCP v1.1&#45;normative)</text>
</g>
<!-- Memory&#45;&gt;Legend -->
<!-- Ws -->
<g id="node13" class="node">
<title>Ws</title>
<path fill="#1a1813" stroke="#2b2820" d="M1066.15,-156C1066.15,-156 1011.85,-156 1011.85,-156 1005.85,-156 999.85,-150 999.85,-144 999.85,-144 999.85,-132 999.85,-132 999.85,-126 1005.85,-120 1011.85,-120 1011.85,-120 1066.15,-120 1066.15,-120 1072.15,-120 1078.15,-126 1078.15,-132 1078.15,-132 1078.15,-144 1078.15,-144 1078.15,-150 1072.15,-156 1066.15,-156"/>
<text xml:space="preserve" text-anchor="start" x="1014.25" y="-135.38" font-family="IBM Plex Mono" font-size="9.00" fill="#c9c2b4">websocket *</text>
</g>
<!-- Stdio&#45;&gt;Ws -->
<!-- Tower&#45;&gt;AuthTrait -->
<g id="edge13" class="edge">
<title>Tower&#45;&gt;AuthTrait</title>
<path fill="none" stroke="#3c372f" stroke-dasharray="5,2" d="M122.86,-335.88C125.18,-337.29 127.56,-338.57 130,-339.71 180.57,-363.35 980.12,-363.96 1212.66,-347.47"/>
<polygon fill="#3c372f" stroke="#3c372f" points="1219.47,-346.97 1212.72,-350.63 1217.2,-347.14 1212.49,-347.48 1212.49,-347.48 1212.49,-347.48 1217.2,-347.14 1212.26,-344.34 1219.47,-346.97"/>
<text xml:space="preserve" text-anchor="middle" x="599" y="-356.08" font-family="IBM Plex Mono" font-size="9.00" fill="#5f5949">re&#45;export</text>
</g>
<!-- Axum -->
<g id="node15" class="node">
<title>Axum</title>
<path fill="#1a1813" stroke="#2b2820" d="M184,-282.38C184,-282.38 154,-282.38 154,-282.38 148,-282.38 142,-276.38 142,-270.38 142,-270.38 142,-258.38 142,-258.38 142,-252.38 148,-246.38 154,-246.38 154,-246.38 184,-246.38 184,-246.38 190,-246.38 196,-252.38 196,-258.38 196,-258.38 196,-270.38 196,-270.38 196,-276.38 190,-282.38 184,-282.38"/>
<text xml:space="preserve" text-anchor="start" x="147.25" y="-261.75" font-family="IBM Plex Mono" font-size="9.00" fill="#8c8576">arcp&#45;axum</text>
</g>
<!-- Tower&#45;&gt;Axum -->
<!-- Actix -->
<g id="node16" class="node">
<title>Actix</title>
<path fill="#1a1813" stroke="#2b2820" d="M294.44,-282.38C294.44,-282.38 255.56,-282.38 255.56,-282.38 249.56,-282.38 243.56,-276.38 243.56,-270.38 243.56,-270.38 243.56,-258.38 243.56,-258.38 243.56,-252.38 249.56,-246.38 255.56,-246.38 255.56,-246.38 294.44,-246.38 294.44,-246.38 300.44,-246.38 306.44,-252.38 306.44,-258.38 306.44,-258.38 306.44,-270.38 306.44,-270.38 306.44,-276.38 300.44,-282.38 294.44,-282.38"/>
<text xml:space="preserve" text-anchor="start" x="245" y="-261.75" font-family="IBM Plex Mono" font-size="9.00" fill="#8c8576">arcp&#45;actix&#45;web</text>
</g>
<!-- Axum&#45;&gt;Actix -->
<!-- Otel -->
<g id="node17" class="node">
<title>Otel</title>
<path fill="#1a1813" stroke="#2b2820" d="M396,-282.38C396,-282.38 366,-282.38 366,-282.38 360,-282.38 354,-276.38 354,-270.38 354,-270.38 354,-258.38 354,-258.38 354,-252.38 360,-246.38 366,-246.38 366,-246.38 396,-246.38 396,-246.38 402,-246.38 408,-252.38 408,-258.38 408,-258.38 408,-270.38 408,-270.38 408,-276.38 402,-282.38 396,-282.38"/>
<text xml:space="preserve" text-anchor="start" x="363" y="-261.75" font-family="IBM Plex Mono" font-size="9.00" fill="#8c8576">arcp&#45;otel</text>
</g>
<!-- Actix&#45;&gt;Otel -->
</g>
</svg>
