<?xml version="1.0" encoding="UTF-8" standalone="no"?>
<!DOCTYPE svg PUBLIC "-//W3C//DTD SVG 1.1//EN"
 "http://www.w3.org/Graphics/SVG/1.1/DTD/svg11.dtd">
<!-- Generated by graphviz version 14.1.5 (20260411.2331)
 -->
<!-- Title: RustSdkArchitecture Pages: 1 -->
<svg width="558pt" height="382pt"
 viewBox="0.00 0.00 558.00 382.00" xmlns="http://www.w3.org/2000/svg" xmlns:xlink="http://www.w3.org/1999/xlink">
<g id="graph0" class="graph" transform="scale(1 1) rotate(0) translate(25.2 363.84)">
<title>RustSdkArchitecture</title>
<g id="clust1" class="cluster">
<title>cluster_transport</title>
<path fill="#0f172a" stroke="#334155" d="M185.59,-8C185.59,-8 487.59,-8 487.59,-8 493.59,-8 499.59,-14 499.59,-20 499.59,-20 499.59,-91 499.59,-91 499.59,-97 493.59,-103 487.59,-103 487.59,-103 185.59,-103 185.59,-103 179.59,-103 173.59,-97 173.59,-91 173.59,-91 173.59,-20 173.59,-20 173.59,-14 179.59,-8 185.59,-8"/>
<text xml:space="preserve" text-anchor="start" x="189.59" y="-80.6" font-family="TT Commons Pro Trial" font-weight="bold" font-size="12.00" fill="#94a3b8">arcp::transport</text>
</g>
<!-- Client -->
<g id="node1" class="node">
<title>Client</title>
<path fill="#3b82f6" stroke="#2563eb" stroke-width="1.4" d="M227.81,-345.84C227.81,-345.84 123.38,-345.84 123.38,-345.84 117.38,-345.84 111.38,-339.84 111.38,-333.84 111.38,-333.84 111.38,-321 111.38,-321 111.38,-315 117.38,-309 123.38,-309 123.38,-309 227.81,-309 227.81,-309 233.81,-309 239.81,-315 239.81,-321 239.81,-321 239.81,-333.84 239.81,-333.84 239.81,-339.84 233.81,-345.84 227.81,-345.84"/>
<text xml:space="preserve" text-anchor="start" x="146.72" y="-327.52" font-family="TT Commons Pro Trial" font-weight="bold" font-size="12.00" fill="white">arcp::client</text>
<text xml:space="preserve" text-anchor="start" x="127.22" y="-318.37" font-family="TT Commons Pro Trial" font-size="9.00" fill="#cbd5e1">ARCPClient · Session&lt;S&gt;</text>
</g>
<!-- Runtime -->
<g id="node2" class="node">
<title>Runtime</title>
<path fill="#f59e0b" stroke="#d97706" stroke-width="1.4" d="M182.06,-257.75C182.06,-257.75 61.12,-257.75 61.12,-257.75 55.12,-257.75 49.12,-251.75 49.12,-245.75 49.12,-245.75 49.12,-232.9 49.12,-232.9 49.12,-226.9 55.12,-220.9 61.12,-220.9 61.12,-220.9 182.06,-220.9 182.06,-220.9 188.06,-220.9 194.06,-226.9 194.06,-232.9 194.06,-232.9 194.06,-245.75 194.06,-245.75 194.06,-251.75 188.06,-257.75 182.06,-257.75"/>
<text xml:space="preserve" text-anchor="start" x="87.47" y="-239.42" font-family="TT Commons Pro Trial" font-weight="bold" font-size="12.00" fill="white">arcp::runtime</text>
<text xml:space="preserve" text-anchor="start" x="64.97" y="-230.27" font-family="TT Commons Pro Trial" font-size="9.00" fill="white">server · jobs · leases · artifacts</text>
</g>
<!-- Client&#45;&gt;Runtime -->
<g id="edge3" class="edge">
<title>Client&#45;&gt;Runtime</title>
<path fill="none" stroke="#94a3b8" stroke-width="1.2" d="M159.6,-300.92C152.64,-289.82 144.5,-276.85 137.55,-265.77"/>
<polygon fill="#94a3b8" stroke="#94a3b8" stroke-width="1.2" points="157.23,-302.08 163.44,-307.04 161.67,-299.29 157.23,-302.08"/>
<polygon fill="#94a3b8" stroke="#94a3b8" stroke-width="1.2" points="133.73,-259.67 140.57,-264.24 135.03,-261.56 137.8,-265.98 137.71,-266.03 137.63,-266.08 134.86,-261.67 134.85,-267.82 133.73,-259.67"/>
<text xml:space="preserve" text-anchor="middle" x="181.07" y="-280.44" font-family="TT Commons Pro Trial" font-size="9.00" fill="#94a3b8">invoke / events</text>
</g>
<!-- Messages -->
<g id="node3" class="node">
<title>Messages</title>
<path fill="#334155" stroke="#475569" d="M286.81,-173.95C286.81,-173.95 170.38,-173.95 170.38,-173.95 164.38,-173.95 158.38,-167.95 158.38,-161.95 158.38,-161.95 158.38,-149.95 158.38,-149.95 158.38,-143.95 164.38,-137.95 170.38,-137.95 170.38,-137.95 286.81,-137.95 286.81,-137.95 292.81,-137.95 298.81,-143.95 298.81,-149.95 298.81,-149.95 298.81,-161.95 298.81,-161.95 298.81,-167.95 292.81,-173.95 286.81,-173.95"/>
<text xml:space="preserve" text-anchor="start" x="191.47" y="-156.5" font-family="TT Commons Pro Trial" font-weight="bold" font-size="11.00" fill="#f1f5f9">arcp::messages</text>
<text xml:space="preserve" text-anchor="start" x="174.22" y="-147.4" font-family="TT Commons Pro Trial" font-size="9.00" fill="#94a3b8">tagged&#45;enum MessageType</text>
</g>
<!-- Client&#45;&gt;Messages -->
<g id="edge4" class="edge">
<title>Client&#45;&gt;Messages</title>
<path fill="none" stroke="#94a3b8" stroke-width="1.2" d="M197.96,-308.57C203.63,-302.92 209.09,-296.23 212.59,-289 229.02,-255 230.99,-210.56 230.27,-182.89"/>
<polygon fill="#94a3b8" stroke="#94a3b8" stroke-width="1.2" points="229.99,-175.65 233.65,-183.02 230.18,-177.93 230.38,-183.14 230.28,-183.14 230.18,-183.15 229.98,-177.94 226.9,-183.27 229.99,-175.65"/>
</g>
<!-- Runtime&#45;&gt;Messages -->
<g id="edge5" class="edge">
<title>Runtime&#45;&gt;Messages</title>
<path fill="none" stroke="#94a3b8" stroke-width="1.2" d="M145.34,-220.27C161.07,-208.3 181.83,-192.51 198.69,-179.69"/>
<polygon fill="#94a3b8" stroke="#94a3b8" stroke-width="1.2" points="204.48,-175.29 200.55,-182.51 202.72,-176.75 198.57,-179.91 198.51,-179.83 198.45,-179.75 202.6,-176.59 196.47,-177.14 204.48,-175.29"/>
</g>
<!-- Store -->
<g id="node7" class="node">
<title>Store</title>
<path fill="#1e293b" stroke="#475569" d="M135.18,-175.55C135.18,-177.95 104.89,-179.9 67.59,-179.9 30.29,-179.9 0,-177.95 0,-175.55 0,-175.55 0,-136.35 0,-136.35 0,-133.95 30.29,-132 67.59,-132 104.89,-132 135.18,-133.95 135.18,-136.35 135.18,-136.35 135.18,-175.55 135.18,-175.55"/>
<path fill="none" stroke="#475569" d="M135.18,-175.55C135.18,-173.15 104.89,-171.19 67.59,-171.19 30.29,-171.19 0,-173.15 0,-175.55"/>
<text xml:space="preserve" text-anchor="start" x="42.47" y="-156" font-family="TT Commons Pro Trial" font-weight="bold" font-size="11.00" fill="#f1f5f9">arcp::store</text>
<text xml:space="preserve" text-anchor="start" x="15.84" y="-147.85" font-family="TT Commons Pro Trial" font-size="8.00" fill="#64748b">rusqlite · idempotency · replay</text>
</g>
<!-- Runtime&#45;&gt;Store -->
<g id="edge7" class="edge">
<title>Runtime&#45;&gt;Store</title>
<path fill="none" stroke="#475569" d="M109.61,-220.27C103.18,-210.59 95.1,-198.4 87.74,-187.31"/>
<polygon fill="#475569" stroke="#475569" points="83.71,-181.24 90.67,-185.62 85.11,-183.35 87.85,-187.49 87.85,-187.49 87.85,-187.49 85.11,-183.35 85.04,-189.35 83.71,-181.24"/>
</g>
<!-- Ws -->
<g id="node4" class="node">
<title>Ws</title>
<path fill="#334155" stroke="#475569" d="M257.56,-58C257.56,-58 199.62,-58 199.62,-58 193.62,-58 187.62,-52 187.62,-46 187.62,-46 187.62,-34 187.62,-34 187.62,-28 193.62,-22 199.62,-22 199.62,-22 257.56,-22 257.56,-22 263.56,-22 269.56,-28 269.56,-34 269.56,-34 269.56,-46 269.56,-46 269.56,-52 263.56,-58 257.56,-58"/>
<text xml:space="preserve" text-anchor="middle" x="228.59" y="-36.67" font-family="TT Commons Pro Trial" font-size="11.00" fill="#f1f5f9">websocket</text>
</g>
<!-- Messages&#45;&gt;Ws -->
<g id="edge6" class="edge">
<title>Messages&#45;&gt;Ws</title>
<path fill="none" stroke="#94a3b8" stroke-width="1.2" d="M228.59,-137.65C228.59,-130.38 228.59,-121.4 228.59,-111.87"/>
<polygon fill="#94a3b8" stroke="#94a3b8" stroke-width="1.2" points="228.59,-104.46 231.97,-111.96 228.69,-106.75 228.69,-111.96 228.59,-111.96 228.49,-111.96 228.49,-106.75 225.22,-111.96 228.59,-104.46"/>
</g>
<!-- Stdio -->
<g id="node5" class="node">
<title>Stdio</title>
<path fill="#334155" stroke="#475569" d="M357.68,-58C357.68,-58 327.5,-58 327.5,-58 321.5,-58 315.5,-52 315.5,-46 315.5,-46 315.5,-34 315.5,-34 315.5,-28 321.5,-22 327.5,-22 327.5,-22 357.68,-22 357.68,-22 363.68,-22 369.68,-28 369.68,-34 369.68,-34 369.68,-46 369.68,-46 369.68,-52 363.68,-58 357.68,-58"/>
<text xml:space="preserve" text-anchor="middle" x="342.59" y="-36.67" font-family="TT Commons Pro Trial" font-size="11.00" fill="#f1f5f9">stdio</text>
</g>
<!-- Ws&#45;&gt;Stdio -->
<!-- Memory -->
<g id="node6" class="node">
<title>Memory</title>
<path fill="#334155" stroke="#475569" d="M473.93,-58C473.93,-58 427.25,-58 427.25,-58 421.25,-58 415.25,-52 415.25,-46 415.25,-46 415.25,-34 415.25,-34 415.25,-28 421.25,-22 427.25,-22 427.25,-22 473.93,-22 473.93,-22 479.93,-22 485.93,-28 485.93,-34 485.93,-34 485.93,-46 485.93,-46 485.93,-52 479.93,-58 473.93,-58"/>
<text xml:space="preserve" text-anchor="middle" x="450.59" y="-36.67" font-family="TT Commons Pro Trial" font-size="11.00" fill="#f1f5f9">memory</text>
</g>
<!-- Stdio&#45;&gt;Memory -->
</g>
</svg>
